<svg xmlns="http://www.w3.org/2000/svg" xmlns:xlink="http://www.w3.org/1999/xlink" width="2000" zoomAndPan="magnify" viewBox="0 0 1500 1499.999933" height="2000" preserveAspectRatio="xMidYMid meet" version="1.0"><defs><g/><clipPath id="8a66ca666c"><path d="M 701.667969 1180.515625 L 1030.871094 1180.515625 L 1030.871094 1211.328125 L 701.667969 1211.328125 Z M 701.667969 1180.515625 " clip-rule="nonzero"/></clipPath><clipPath id="880da3e9a2"><path d="M 0.667969 0.515625 L 329.871094 0.515625 L 329.871094 31.328125 L 0.667969 31.328125 Z M 0.667969 0.515625 " clip-rule="nonzero"/></clipPath><clipPath id="98c46f3a61"><rect x="0" width="330" y="0" height="32"/></clipPath><clipPath id="8bb7200402"><rect x="0" width="1500" y="0" height="1500"/></clipPath></defs><g transform="matrix(1, 0, 0, 1, 0, 0.000000000000112861)"><g clip-path="url(#8bb7200402)"><g fill="#331F1F" fill-opacity="1"><g transform="translate(0.00003335, 1191.227382)"><g><path d="M 43.6875 -206.421875 C 43.6875 -254.484375 51.878906 -295.625 68.265625 -329.84375 C 84.648438 -364.070312 106.128906 -392.835938 132.703125 -416.140625 C 159.285156 -439.441406 188.59375 -458.734375 220.625 -474.015625 C 252.664062 -489.304688 284.882812 -502.234375 317.28125 -512.796875 C 349.6875 -523.359375 379.175781 -532.820312 405.75 -541.1875 C 432.332031 -549.5625 453.816406 -558.664062 470.203125 -568.5 C 486.585938 -578.332031 494.78125 -590.164062 494.78125 -604 C 494.78125 -618.5625 488.40625 -628.207031 475.65625 -632.9375 C 462.914062 -637.675781 451.085938 -640.046875 440.171875 -640.046875 C 419.773438 -640.046875 401.929688 -635.128906 386.640625 -625.296875 C 371.347656 -615.460938 356.421875 -604.359375 341.859375 -591.984375 C 327.296875 -579.609375 310.910156 -568.503906 292.703125 -558.671875 C 274.503906 -548.835938 252.664062 -543.921875 227.1875 -543.921875 C 187.863281 -543.921875 156.367188 -556.117188 132.703125 -580.515625 C 109.035156 -604.910156 97.203125 -633.851562 97.203125 -667.34375 C 97.203125 -692.832031 103.753906 -718.5 116.859375 -744.34375 C 129.972656 -770.195312 150.179688 -794.046875 177.484375 -815.890625 C 204.785156 -837.734375 239.914062 -855.390625 282.875 -868.859375 C 325.84375 -882.328125 377.179688 -889.0625 436.890625 -889.0625 C 505.335938 -889.0625 563.585938 -880.320312 611.640625 -862.84375 C 659.703125 -845.375 699.203125 -822.441406 730.140625 -794.046875 C 761.085938 -765.648438 785.300781 -734.703125 802.78125 -701.203125 C 820.257812 -667.710938 832.457031 -634.945312 839.375 -602.90625 C 846.289062 -570.863281 849.75 -542.828125 849.75 -518.796875 L 849.75 -211.890625 C 849.75 -171.109375 855.753906 -136.519531 867.765625 -108.125 C 879.785156 -79.726562 901.445312 -65.53125 932.75 -65.53125 L 932.75 -54.609375 C 903.625 -37.859375 870.128906 -21.109375 832.265625 -4.359375 C 794.398438 12.378906 749.617188 20.75 697.921875 20.75 C 658.609375 20.75 625.84375 10.917969 599.625 -8.734375 C 573.414062 -28.398438 553.390625 -53.335938 539.546875 -83.546875 C 525.710938 -113.765625 517.707031 -144.53125 515.53125 -175.84375 C 493.6875 -107.394531 461.644531 -57.515625 419.40625 -26.203125 C 377.175781 5.097656 326.9375 20.75 268.6875 20.75 C 229.363281 20.75 192.585938 11.464844 158.359375 -7.09375 C 124.140625 -25.664062 96.472656 -51.878906 75.359375 -85.734375 C 54.242188 -119.597656 43.6875 -159.828125 43.6875 -206.421875 Z M 370.265625 -297.078125 C 370.265625 -277.421875 373.359375 -257.941406 379.546875 -238.640625 C 385.734375 -219.347656 395.195312 -203.515625 407.9375 -191.140625 C 420.6875 -178.765625 436.160156 -172.578125 454.359375 -172.578125 C 468.921875 -172.578125 482.570312 -177.304688 495.3125 -186.765625 C 508.0625 -196.234375 514.4375 -203.878906 514.4375 -209.703125 L 514.4375 -654.234375 C 514.4375 -669.523438 514.4375 -689.367188 514.4375 -713.765625 C 514.4375 -738.160156 512.429688 -762.367188 508.421875 -786.390625 C 504.421875 -810.421875 496.957031 -830.8125 486.03125 -847.5625 C 475.113281 -864.3125 458.734375 -872.6875 436.890625 -872.6875 C 421.597656 -872.6875 409.945312 -866.128906 401.9375 -853.015625 C 393.925781 -839.910156 388.460938 -825.53125 385.546875 -809.875 C 382.640625 -794.21875 381.1875 -782.390625 381.1875 -774.390625 C 381.1875 -742.347656 389.015625 -718.5 404.671875 -702.84375 C 420.328125 -687.1875 436.890625 -675.351562 454.359375 -667.34375 C 469.648438 -660.0625 483.484375 -652.597656 495.859375 -644.953125 C 508.242188 -637.304688 514.4375 -624.75 514.4375 -607.28125 C 514.4375 -589.800781 509.519531 -576.144531 499.6875 -566.3125 C 489.851562 -556.488281 477.835938 -546.476562 463.640625 -536.28125 C 449.441406 -526.082031 435.242188 -512.242188 421.046875 -494.765625 C 406.847656 -477.296875 394.832031 -453.085938 385 -422.140625 C 375.175781 -391.191406 370.265625 -349.503906 370.265625 -297.078125 Z M 370.265625 -297.078125 "/></g></g></g><g fill="#331F1F" fill-opacity="1"><g transform="translate(652.432297, 1191.227382)"><g><path d="M 540.640625 -84.09375 C 540.640625 -116.132812 531.71875 -143.804688 513.875 -167.109375 C 496.039062 -190.410156 472.378906 -211.34375 442.890625 -229.90625 C 413.398438 -248.476562 381 -266.5 345.6875 -283.96875 C 310.375 -301.445312 274.875 -320.015625 239.1875 -339.671875 C 203.507812 -359.335938 170.925781 -381.726562 141.4375 -406.84375 C 111.945312 -431.96875 88.28125 -462.003906 70.4375 -496.953125 C 52.601562 -531.910156 43.6875 -573.414062 43.6875 -621.46875 C 43.6875 -681.175781 60.066406 -730.691406 92.828125 -770.015625 C 125.597656 -809.335938 168.742188 -839.007812 222.265625 -859.03125 C 275.785156 -879.050781 334.21875 -889.0625 397.5625 -889.0625 C 454.363281 -889.0625 503.515625 -885.785156 545.015625 -879.234375 C 586.523438 -872.679688 622.929688 -869.40625 654.234375 -869.40625 C 671.710938 -869.40625 688.644531 -870.675781 705.03125 -873.21875 C 721.414062 -875.769531 734.335938 -881.050781 743.796875 -889.0625 L 754.71875 -889.0625 L 754.71875 -560.3125 L 743.796875 -560.3125 C 733.609375 -593.070312 719.226562 -627.109375 700.65625 -662.421875 C 682.09375 -697.742188 660.25 -730.695312 635.125 -761.28125 C 610 -791.863281 583.054688 -816.800781 554.296875 -836.09375 C 525.535156 -855.382812 495.5 -865.03125 464.1875 -865.03125 C 433.601562 -865.03125 406.84375 -856.289062 383.90625 -838.8125 C 360.976562 -821.34375 349.515625 -796.953125 349.515625 -765.640625 C 349.515625 -735.054688 357.703125 -708.476562 374.078125 -685.90625 C 390.460938 -663.332031 412.125 -642.941406 439.0625 -624.734375 C 466.007812 -606.535156 495.679688 -589.0625 528.078125 -572.3125 C 560.484375 -555.570312 592.890625 -537.914062 625.296875 -519.34375 C 657.703125 -500.78125 687.375 -479.484375 714.3125 -455.453125 C 741.25 -431.421875 762.910156 -403.019531 779.296875 -370.25 C 795.679688 -337.488281 803.875 -298.898438 803.875 -254.484375 C 803.875 -210.066406 793.492188 -170.742188 772.734375 -136.515625 C 751.984375 -102.296875 724.132812 -73.535156 689.1875 -50.234375 C 654.238281 -26.941406 615.28125 -9.289062 572.3125 2.71875 C 529.351562 14.738281 486.03125 20.75 442.34375 20.75 C 391.375 20.75 344.59375 18.203125 302 13.109375 C 259.40625 8.015625 218.445312 -1.8125 179.125 -16.375 C 139.800781 -30.945312 99.390625 -52.429688 57.890625 -80.828125 L 57.890625 -338.59375 L 68.8125 -338.59375 C 89.195312 -297.8125 113.039062 -257.394531 140.34375 -217.34375 C 167.65625 -177.300781 197.507812 -141.078125 229.90625 -108.671875 C 262.3125 -76.273438 296.535156 -50.242188 332.578125 -30.578125 C 368.617188 -10.921875 405.570312 -1.09375 443.4375 -1.09375 C 471.101562 -1.09375 494.21875 -7.828125 512.78125 -21.296875 C 531.351562 -34.765625 540.640625 -55.695312 540.640625 -84.09375 Z M 540.640625 -84.09375 "/></g></g></g><g clip-path="url(#8a66ca666c)"><g transform="matrix(1, 0, 0, 1, 701, 1180)"><g clip-path="url(#98c46f3a61)"><g clip-path="url(#880da3e9a2)"><path fill="#331F1F" d="M 0.667969 0.515625 L 329.863281 0.515625 L 329.863281 31.328125 L 0.667969 31.328125 Z M 0.667969 0.515625 " fill-opacity="1" fill-rule="nonzero"/></g></g></g></g></g></g></svg>